<svg width="17" height="11" viewBox="0 0 17 11" fill="none" xmlns="http://www.w3.org/2000/svg">
<path id="Vector" d="M15.75 10.9813H0.75C0.551088 10.9813 0.360322 10.9023 0.21967 10.7616C0.0790175 10.621 0 10.4302 0 10.2313C0 10.0324 0.0790175 9.84161 0.21967 9.70096C0.360322 9.56031 0.551088 9.48129 0.75 9.48129H15.75C15.9489 9.48129 16.1397 9.56031 16.2803 9.70096C16.421 9.84161 16.5 10.0324 16.5 10.2313C16.5 10.4302 16.421 10.621 16.2803 10.7616C16.1397 10.9023 15.9489 10.9813 15.75 10.9813ZM10.25 5.48129C10.1515 5.48176 10.0538 5.46254 9.96281 5.42476C9.87179 5.38698 9.78924 5.3314 9.72 5.26129L7.25 2.79129L4.78 5.26129C4.63783 5.39377 4.44978 5.4659 4.25548 5.46247C4.06118 5.45904 3.87579 5.38033 3.73838 5.24291C3.60097 5.1055 3.52225 4.92012 3.51883 4.72581C3.5154 4.53151 3.58752 4.34347 3.72 4.20129L6.72 1.20129C6.86063 1.06084 7.05125 0.981952 7.25 0.981952C7.44875 0.981952 7.63937 1.06084 7.78 1.20129L10.25 3.67129L13.72 0.201293C13.8622 0.0688125 14.0502 -0.00331137 14.2445 0.000116846C14.4388 0.00354506 14.6242 0.0822578 14.7616 0.219671C14.899 0.357084 14.9777 0.542469 14.9812 0.73677C14.9846 0.931071 14.9125 1.11912 14.78 1.26129L10.78 5.26129C10.7108 5.3314 10.6282 5.38698 10.5372 5.42476C10.4462 5.46254 10.3485 5.48176 10.25 5.48129Z" fill="black"/>
</svg>
